<mxfile host="app.diagrams.net" agent="Mozilla/5.0 (Windows NT 10.0; Win64; x64; rv:133.0) Gecko/20100101 Firefox/133.0" version="25.0.1">
  <diagram name="Page-1" id="TplEGpz9aIAk-DlBbVjE">
    <mxGraphModel dx="1576" dy="2399" grid="1" gridSize="10" guides="1" tooltips="1" connect="1" arrows="1" fold="1" page="1" pageScale="1" pageWidth="850" pageHeight="1100" math="0" shadow="0">
      <root>
        <mxCell id="0" />
        <mxCell id="1" parent="0" />
        <mxCell id="mtfF7J3Mxbu9En80zcPc-3" value="" style="edgeStyle=orthogonalEdgeStyle;rounded=0;orthogonalLoop=1;jettySize=auto;html=1;" edge="1" parent="1" source="mtfF7J3Mxbu9En80zcPc-97" target="mtfF7J3Mxbu9En80zcPc-2">
          <mxGeometry relative="1" as="geometry">
            <Array as="points">
              <mxPoint x="520" y="180" />
              <mxPoint x="520" y="250" />
              <mxPoint x="425" y="250" />
            </Array>
          </mxGeometry>
        </mxCell>
        <mxCell id="mtfF7J3Mxbu9En80zcPc-53" style="edgeStyle=orthogonalEdgeStyle;rounded=0;orthogonalLoop=1;jettySize=auto;html=1;entryX=0.5;entryY=0;entryDx=0;entryDy=0;" edge="1" parent="1" source="mtfF7J3Mxbu9En80zcPc-95" target="mtfF7J3Mxbu9En80zcPc-14">
          <mxGeometry relative="1" as="geometry">
            <mxPoint x="425" y="-120" as="targetPoint" />
          </mxGeometry>
        </mxCell>
        <mxCell id="mtfF7J3Mxbu9En80zcPc-1" value="Start" style="ellipse;whiteSpace=wrap;html=1;" vertex="1" parent="1">
          <mxGeometry x="365" y="-280" width="120" height="80" as="geometry" />
        </mxCell>
        <mxCell id="mtfF7J3Mxbu9En80zcPc-5" value="" style="edgeStyle=orthogonalEdgeStyle;rounded=0;orthogonalLoop=1;jettySize=auto;html=1;" edge="1" parent="1" source="mtfF7J3Mxbu9En80zcPc-2" target="mtfF7J3Mxbu9En80zcPc-4">
          <mxGeometry relative="1" as="geometry" />
        </mxCell>
        <mxCell id="mtfF7J3Mxbu9En80zcPc-2" value="&lt;div&gt;input&lt;/div&gt;&lt;div&gt;area_code&lt;br&gt;&lt;/div&gt;" style="shape=parallelogram;perimeter=parallelogramPerimeter;whiteSpace=wrap;html=1;fixedSize=1;" vertex="1" parent="1">
          <mxGeometry x="365" y="280" width="120" height="60" as="geometry" />
        </mxCell>
        <mxCell id="mtfF7J3Mxbu9En80zcPc-7" value="" style="edgeStyle=orthogonalEdgeStyle;rounded=0;orthogonalLoop=1;jettySize=auto;html=1;" edge="1" parent="1" source="mtfF7J3Mxbu9En80zcPc-4" target="mtfF7J3Mxbu9En80zcPc-6">
          <mxGeometry relative="1" as="geometry" />
        </mxCell>
        <mxCell id="mtfF7J3Mxbu9En80zcPc-4" value="&lt;div&gt;input&lt;/div&gt;&lt;div&gt;phone_number&lt;br&gt;&lt;/div&gt;" style="shape=parallelogram;perimeter=parallelogramPerimeter;whiteSpace=wrap;html=1;fixedSize=1;" vertex="1" parent="1">
          <mxGeometry x="365" y="420" width="120" height="60" as="geometry" />
        </mxCell>
        <mxCell id="mtfF7J3Mxbu9En80zcPc-9" value="" style="edgeStyle=orthogonalEdgeStyle;rounded=0;orthogonalLoop=1;jettySize=auto;html=1;" edge="1" parent="1" source="mtfF7J3Mxbu9En80zcPc-6" target="mtfF7J3Mxbu9En80zcPc-8">
          <mxGeometry relative="1" as="geometry" />
        </mxCell>
        <mxCell id="mtfF7J3Mxbu9En80zcPc-6" value="&lt;div&gt;input&lt;/div&gt;&lt;div&gt;total_messages&lt;br&gt;&lt;/div&gt;" style="shape=parallelogram;perimeter=parallelogramPerimeter;whiteSpace=wrap;html=1;fixedSize=1;" vertex="1" parent="1">
          <mxGeometry x="365" y="560" width="120" height="60" as="geometry" />
        </mxCell>
        <mxCell id="mtfF7J3Mxbu9En80zcPc-13" value="" style="edgeStyle=orthogonalEdgeStyle;rounded=0;orthogonalLoop=1;jettySize=auto;html=1;" edge="1" parent="1" source="mtfF7J3Mxbu9En80zcPc-8" target="mtfF7J3Mxbu9En80zcPc-12">
          <mxGeometry relative="1" as="geometry" />
        </mxCell>
        <mxCell id="mtfF7J3Mxbu9En80zcPc-17" value="" style="edgeStyle=orthogonalEdgeStyle;rounded=0;orthogonalLoop=1;jettySize=auto;html=1;" edge="1" parent="1" source="mtfF7J3Mxbu9En80zcPc-8" target="mtfF7J3Mxbu9En80zcPc-16">
          <mxGeometry relative="1" as="geometry" />
        </mxCell>
        <mxCell id="mtfF7J3Mxbu9En80zcPc-8" value="if total_messages &amp;gt; 300" style="rhombus;whiteSpace=wrap;html=1;" vertex="1" parent="1">
          <mxGeometry x="385" y="690" width="80" height="80" as="geometry" />
        </mxCell>
        <mxCell id="mtfF7J3Mxbu9En80zcPc-23" value="" style="edgeStyle=orthogonalEdgeStyle;rounded=0;orthogonalLoop=1;jettySize=auto;html=1;" edge="1" parent="1" source="mtfF7J3Mxbu9En80zcPc-12" target="mtfF7J3Mxbu9En80zcPc-22">
          <mxGeometry relative="1" as="geometry" />
        </mxCell>
        <mxCell id="mtfF7J3Mxbu9En80zcPc-12" value="else total_messages &amp;gt; 100 and &amp;lt; 300" style="rhombus;whiteSpace=wrap;html=1;" vertex="1" parent="1">
          <mxGeometry x="385" y="850" width="80" height="80" as="geometry" />
        </mxCell>
        <mxCell id="mtfF7J3Mxbu9En80zcPc-14" value="total_bill = float" style="rounded=0;whiteSpace=wrap;html=1;" vertex="1" parent="1">
          <mxGeometry x="365" y="-70" width="120" height="60" as="geometry" />
        </mxCell>
        <mxCell id="mtfF7J3Mxbu9En80zcPc-31" style="edgeStyle=orthogonalEdgeStyle;rounded=0;orthogonalLoop=1;jettySize=auto;html=1;entryX=0.5;entryY=0;entryDx=0;entryDy=0;" edge="1" parent="1" source="mtfF7J3Mxbu9En80zcPc-16" target="mtfF7J3Mxbu9En80zcPc-28">
          <mxGeometry relative="1" as="geometry" />
        </mxCell>
        <mxCell id="mtfF7J3Mxbu9En80zcPc-16" value="total_bill = (total_messages - 300) * 0.02 + 200 * 0.03 + 5" style="whiteSpace=wrap;html=1;" vertex="1" parent="1">
          <mxGeometry x="525" y="700" width="120" height="60" as="geometry" />
        </mxCell>
        <mxCell id="mtfF7J3Mxbu9En80zcPc-29" style="edgeStyle=orthogonalEdgeStyle;rounded=0;orthogonalLoop=1;jettySize=auto;html=1;entryX=0;entryY=0.5;entryDx=0;entryDy=0;" edge="1" parent="1" source="mtfF7J3Mxbu9En80zcPc-22" target="mtfF7J3Mxbu9En80zcPc-28">
          <mxGeometry relative="1" as="geometry" />
        </mxCell>
        <mxCell id="mtfF7J3Mxbu9En80zcPc-22" value="total_bill = (total_messages - 100) * 0.02 + 5" style="whiteSpace=wrap;html=1;" vertex="1" parent="1">
          <mxGeometry x="525" y="860" width="120" height="60" as="geometry" />
        </mxCell>
        <mxCell id="mtfF7J3Mxbu9En80zcPc-104" value="" style="edgeStyle=orthogonalEdgeStyle;rounded=0;orthogonalLoop=1;jettySize=auto;html=1;" edge="1" parent="1" source="mtfF7J3Mxbu9En80zcPc-28" target="mtfF7J3Mxbu9En80zcPc-103">
          <mxGeometry relative="1" as="geometry" />
        </mxCell>
        <mxCell id="mtfF7J3Mxbu9En80zcPc-28" value="&lt;div&gt;total_bill + 14%&lt;/div&gt;" style="rounded=0;whiteSpace=wrap;html=1;" vertex="1" parent="1">
          <mxGeometry x="720" y="860" width="120" height="60" as="geometry" />
        </mxCell>
        <mxCell id="mtfF7J3Mxbu9En80zcPc-96" value="" style="edgeStyle=orthogonalEdgeStyle;rounded=0;orthogonalLoop=1;jettySize=auto;html=1;entryX=0.5;entryY=0;entryDx=0;entryDy=0;" edge="1" parent="1" source="mtfF7J3Mxbu9En80zcPc-1" target="mtfF7J3Mxbu9En80zcPc-95">
          <mxGeometry relative="1" as="geometry">
            <mxPoint x="425" y="-70" as="targetPoint" />
            <mxPoint x="425" y="-200" as="sourcePoint" />
          </mxGeometry>
        </mxCell>
        <mxCell id="mtfF7J3Mxbu9En80zcPc-95" value="sentinel value = float" style="rounded=0;whiteSpace=wrap;html=1;" vertex="1" parent="1">
          <mxGeometry x="365" y="-170" width="120" height="60" as="geometry" />
        </mxCell>
        <mxCell id="mtfF7J3Mxbu9En80zcPc-98" value="" style="edgeStyle=orthogonalEdgeStyle;rounded=0;orthogonalLoop=1;jettySize=auto;html=1;" edge="1" parent="1" source="mtfF7J3Mxbu9En80zcPc-101" target="mtfF7J3Mxbu9En80zcPc-97">
          <mxGeometry relative="1" as="geometry">
            <mxPoint x="425" y="100" as="sourcePoint" />
            <mxPoint x="425" y="280" as="targetPoint" />
          </mxGeometry>
        </mxCell>
        <mxCell id="mtfF7J3Mxbu9En80zcPc-99" style="edgeStyle=orthogonalEdgeStyle;rounded=0;orthogonalLoop=1;jettySize=auto;html=1;exitX=0.5;exitY=1;exitDx=0;exitDy=0;entryX=1.004;entryY=0.438;entryDx=0;entryDy=0;entryPerimeter=0;" edge="1" parent="1" source="mtfF7J3Mxbu9En80zcPc-97" target="mtfF7J3Mxbu9En80zcPc-100">
          <mxGeometry relative="1" as="geometry">
            <mxPoint x="250.00124706939644" y="230" as="targetPoint" />
            <mxPoint x="425.02" y="239" as="sourcePoint" />
            <Array as="points">
              <mxPoint x="425" y="230" />
              <mxPoint x="251" y="230" />
              <mxPoint x="251" y="215" />
            </Array>
          </mxGeometry>
        </mxCell>
        <mxCell id="mtfF7J3Mxbu9En80zcPc-97" value="if sentinel value = e" style="rhombus;whiteSpace=wrap;html=1;" vertex="1" parent="1">
          <mxGeometry x="385" y="140" width="80" height="80" as="geometry" />
        </mxCell>
        <mxCell id="mtfF7J3Mxbu9En80zcPc-100" value="Stop" style="ellipse;whiteSpace=wrap;html=1;" vertex="1" parent="1">
          <mxGeometry x="80" y="180" width="120" height="80" as="geometry" />
        </mxCell>
        <mxCell id="mtfF7J3Mxbu9En80zcPc-102" value="" style="edgeStyle=orthogonalEdgeStyle;rounded=0;orthogonalLoop=1;jettySize=auto;html=1;" edge="1" parent="1" source="mtfF7J3Mxbu9En80zcPc-14" target="mtfF7J3Mxbu9En80zcPc-101">
          <mxGeometry relative="1" as="geometry">
            <mxPoint x="425" y="-10" as="sourcePoint" />
            <mxPoint x="425" y="140" as="targetPoint" />
          </mxGeometry>
        </mxCell>
        <mxCell id="mtfF7J3Mxbu9En80zcPc-101" value="&lt;div&gt;input&lt;/div&gt;&lt;div&gt;sentinel value&lt;/div&gt;" style="shape=parallelogram;perimeter=parallelogramPerimeter;whiteSpace=wrap;html=1;fixedSize=1;" vertex="1" parent="1">
          <mxGeometry x="365" y="30" width="120" height="60" as="geometry" />
        </mxCell>
        <mxCell id="mtfF7J3Mxbu9En80zcPc-106" value="" style="edgeStyle=orthogonalEdgeStyle;rounded=0;orthogonalLoop=1;jettySize=auto;html=1;" edge="1" parent="1" source="mtfF7J3Mxbu9En80zcPc-103" target="mtfF7J3Mxbu9En80zcPc-105">
          <mxGeometry relative="1" as="geometry" />
        </mxCell>
        <mxCell id="mtfF7J3Mxbu9En80zcPc-103" value="&lt;div&gt;output&lt;/div&gt;&lt;div&gt;area_code&lt;br&gt;&lt;/div&gt;" style="shape=parallelogram;perimeter=parallelogramPerimeter;whiteSpace=wrap;html=1;fixedSize=1;rounded=0;" vertex="1" parent="1">
          <mxGeometry x="920" y="860" width="120" height="60" as="geometry" />
        </mxCell>
        <mxCell id="mtfF7J3Mxbu9En80zcPc-108" value="" style="edgeStyle=orthogonalEdgeStyle;rounded=0;orthogonalLoop=1;jettySize=auto;html=1;" edge="1" parent="1" source="mtfF7J3Mxbu9En80zcPc-105" target="mtfF7J3Mxbu9En80zcPc-107">
          <mxGeometry relative="1" as="geometry" />
        </mxCell>
        <mxCell id="mtfF7J3Mxbu9En80zcPc-105" value="&lt;div&gt;output&lt;/div&gt;&lt;div&gt;phone_number&lt;br&gt;&lt;/div&gt;" style="shape=parallelogram;perimeter=parallelogramPerimeter;whiteSpace=wrap;html=1;fixedSize=1;rounded=0;" vertex="1" parent="1">
          <mxGeometry x="1120" y="860" width="120" height="60" as="geometry" />
        </mxCell>
        <mxCell id="mtfF7J3Mxbu9En80zcPc-110" value="" style="edgeStyle=orthogonalEdgeStyle;rounded=0;orthogonalLoop=1;jettySize=auto;html=1;" edge="1" parent="1" source="mtfF7J3Mxbu9En80zcPc-107" target="mtfF7J3Mxbu9En80zcPc-109">
          <mxGeometry relative="1" as="geometry" />
        </mxCell>
        <mxCell id="mtfF7J3Mxbu9En80zcPc-107" value="&lt;div&gt;output&lt;/div&gt;&lt;div&gt;total_messages&lt;br&gt;&lt;/div&gt;" style="shape=parallelogram;perimeter=parallelogramPerimeter;whiteSpace=wrap;html=1;fixedSize=1;rounded=0;" vertex="1" parent="1">
          <mxGeometry x="1320" y="860" width="120" height="60" as="geometry" />
        </mxCell>
        <mxCell id="mtfF7J3Mxbu9En80zcPc-112" value="" style="edgeStyle=orthogonalEdgeStyle;rounded=0;orthogonalLoop=1;jettySize=auto;html=1;" edge="1" parent="1" source="mtfF7J3Mxbu9En80zcPc-109" target="mtfF7J3Mxbu9En80zcPc-111">
          <mxGeometry relative="1" as="geometry" />
        </mxCell>
        <mxCell id="mtfF7J3Mxbu9En80zcPc-109" value="&lt;div&gt;output&lt;/div&gt;&lt;div&gt;total_bill&lt;br&gt;&lt;/div&gt;" style="shape=parallelogram;perimeter=parallelogramPerimeter;whiteSpace=wrap;html=1;fixedSize=1;rounded=0;" vertex="1" parent="1">
          <mxGeometry x="1520" y="860" width="120" height="60" as="geometry" />
        </mxCell>
        <mxCell id="mtfF7J3Mxbu9En80zcPc-113" style="edgeStyle=orthogonalEdgeStyle;rounded=0;orthogonalLoop=1;jettySize=auto;html=1;entryX=1;entryY=0.5;entryDx=0;entryDy=0;" edge="1" parent="1" source="mtfF7J3Mxbu9En80zcPc-111" target="mtfF7J3Mxbu9En80zcPc-97">
          <mxGeometry relative="1" as="geometry">
            <Array as="points">
              <mxPoint x="1790" y="180" />
            </Array>
          </mxGeometry>
        </mxCell>
        <mxCell id="mtfF7J3Mxbu9En80zcPc-111" value="&lt;div&gt;input&lt;/div&gt;&lt;div&gt;&lt;div&gt;sentinel value&lt;/div&gt;&lt;/div&gt;" style="shape=parallelogram;perimeter=parallelogramPerimeter;whiteSpace=wrap;html=1;fixedSize=1;rounded=0;" vertex="1" parent="1">
          <mxGeometry x="1720" y="860" width="120" height="60" as="geometry" />
        </mxCell>
      </root>
    </mxGraphModel>
  </diagram>
</mxfile>
